<?xml version="1.0" encoding="iso-8859-1"?>
<!-- Generator: Adobe Illustrator 22.0.1, SVG Export Plug-In . SVG Version: 6.00 Build 0)  -->
<svg version="1.1" id="Layer_1" xmlns="http://www.w3.org/2000/svg" xmlns:xlink="http://www.w3.org/1999/xlink" x="0px" y="0px"
	 viewBox="0 0 400 300" style="enable-background:new 0 0 400 300;" xml:space="preserve">
<path style="fill:#FF0000;stroke:#000000;stroke-miterlimit:10;" d="M58.5,42.5c0,0-26,60,71,39s0,42,0,42c30,53,94-42,30,53
	s96-75,61-18s-126,102-35,57s-12,30-12,30s-53,40,31,6s111-32,97-23s-194,59-194,59l-75-185L58.5,42.5z"/>
<circle style="fill:#0066CC;stroke:#231F20;stroke-linecap:round;stroke-miterlimit:10;" cx="268.217" cy="92.362" r="31.498"/>
<rect x="267.724" y="113.466" style="fill:#F7931E;stroke:#231F20;stroke-linecap:round;stroke-miterlimit:10;" width="56.25" height="40.245"/>
<rect x="198.895" y="85.618" transform="matrix(0.973 -0.2307 0.2307 0.973 -17.0835 56.6965)" style="fill:#CC00CC;stroke:#231F20;stroke-linecap:round;stroke-miterlimit:10;" width="70.066" height="31.579"/>
<rect x="245.757" y="99.145" style="fill:#00FF00;stroke:#231F20;stroke-linecap:round;stroke-miterlimit:10;" width="36.184" height="36.184"/>
<polygon style="fill:#FFFF00;stroke:#000000;stroke-miterlimit:10;" points="59.898,142.645 65.876,125.517 55.156,110.883 
	73.292,111.275 83.897,96.558 89.129,113.928 106.403,119.466 91.5,129.809 91.571,147.949 77.129,136.971 "/>
<polygon style="fill:#ED1E79;stroke:#231F20;stroke-linecap:round;stroke-miterlimit:10;" points="242.827,103.403 226.856,131.066 
	258.798,131.066 "/>
</svg>
